<mxfile host="65bd71144e">
    <diagram id="FaBZdGapBt5Xe7MGYHCC" name="Page-1">
        <mxGraphModel dx="1054" dy="610" grid="1" gridSize="10" guides="1" tooltips="1" connect="1" arrows="1" fold="1" page="1" pageScale="1" pageWidth="1169" pageHeight="827" math="0" shadow="0">
            <root>
                <mxCell id="0"/>
                <mxCell id="1" parent="0"/>
                <mxCell id="pixeIcaZRbEvFt5O1WeD-2" value="&lt;p style=&quot;margin-top: 0pt ; margin-bottom: 0pt ; margin-left: 0in ; direction: ltr ; unicode-bidi: embed ; word-break: normal&quot;&gt;&lt;span style=&quot;font-size: 18pt ; font-family: &amp;#34;lato&amp;#34; ; color: rgb(51 , 51 , 51) ; font-weight: bold&quot;&gt;&amp;nbsp;&lt;/span&gt;&lt;span style=&quot;font-size: 18pt ; font-family: &amp;#34;lato&amp;#34; ; color: rgb(51 , 51 , 51) ; font-weight: bold&quot;&gt;Ylläpitäjä&lt;/span&gt;&lt;/p&gt;" style="shape=umlActor;verticalLabelPosition=bottom;verticalAlign=top;html=1;outlineConnect=0;strokeWidth=3;" parent="1" vertex="1">
                    <mxGeometry x="50" y="520" width="60" height="120" as="geometry"/>
                </mxCell>
                <mxCell id="pixeIcaZRbEvFt5O1WeD-3" value="&lt;p style=&quot;margin-top: 0pt ; margin-bottom: 0pt ; margin-left: 0in ; direction: ltr ; unicode-bidi: embed ; word-break: normal&quot;&gt;&lt;span style=&quot;font-size: 16pt ; font-family: &amp;#34;lato&amp;#34; ; color: rgb(51 , 51 , 51) ; font-weight: bold&quot;&gt;Käyttäjä&lt;/span&gt;&lt;span style=&quot;font-size: 18pt ; font-family: &amp;#34;lato&amp;#34; ; color: rgb(51 , 51 , 51)&quot;&gt;&amp;nbsp;&lt;/span&gt;&lt;/p&gt;" style="shape=umlActor;verticalLabelPosition=bottom;verticalAlign=top;html=1;outlineConnect=0;strokeWidth=2;" parent="1" vertex="1">
                    <mxGeometry x="50" y="150" width="60" height="120" as="geometry"/>
                </mxCell>
                <mxCell id="pixeIcaZRbEvFt5O1WeD-8" value="&lt;p style=&quot;margin: 0px ; margin-top: 4px ; text-align: center&quot;&gt;&lt;br&gt;&lt;/p&gt;" style="verticalAlign=top;align=left;overflow=fill;fontSize=12;fontFamily=Helvetica;html=1;" parent="1" vertex="1">
                    <mxGeometry x="160" y="40" width="960" height="750" as="geometry"/>
                </mxCell>
                <mxCell id="pixeIcaZRbEvFt5O1WeD-17" style="edgeStyle=orthogonalEdgeStyle;rounded=0;orthogonalLoop=1;jettySize=auto;html=1;entryX=1;entryY=0.3333333333333333;entryDx=0;entryDy=0;entryPerimeter=0;fontSize=36;endArrow=none;endFill=0;strokeColor=#000000;strokeWidth=2;" parent="1" source="pixeIcaZRbEvFt5O1WeD-9" target="pixeIcaZRbEvFt5O1WeD-3" edge="1">
                    <mxGeometry relative="1" as="geometry"/>
                </mxCell>
                <mxCell id="pixeIcaZRbEvFt5O1WeD-30" style="edgeStyle=orthogonalEdgeStyle;rounded=0;sketch=0;orthogonalLoop=1;jettySize=auto;html=1;exitX=0.5;exitY=1;exitDx=0;exitDy=0;entryX=0.5;entryY=0;entryDx=0;entryDy=0;entryPerimeter=0;shadow=0;fontSize=18;startArrow=none;startFill=0;endArrow=none;endFill=0;strokeColor=default;strokeWidth=3;" parent="1" source="pixeIcaZRbEvFt5O1WeD-9" target="pixeIcaZRbEvFt5O1WeD-2" edge="1">
                    <mxGeometry relative="1" as="geometry"/>
                </mxCell>
                <mxCell id="pixeIcaZRbEvFt5O1WeD-9" value="&lt;p style=&quot;margin-top: 0pt ; margin-bottom: 0pt ; margin-left: 0in ; direction: ltr ; unicode-bidi: embed ; word-break: normal&quot;&gt;&lt;span style=&quot;font-family: &amp;#34;calibri&amp;#34; ; font-weight: bold&quot;&gt;&lt;font style=&quot;font-size: 36px&quot; color=&quot;#050505&quot;&gt;Kotisivu&lt;/font&gt;&lt;/span&gt;&lt;/p&gt;" style="ellipse;whiteSpace=wrap;html=1;fillColor=#d5e8d4;strokeColor=#000000;strokeWidth=3;" parent="1" vertex="1">
                    <mxGeometry x="340" y="195" width="170" height="100" as="geometry"/>
                </mxCell>
                <mxCell id="pixeIcaZRbEvFt5O1WeD-19" value="&lt;font style=&quot;font-size: 18px&quot;&gt;&lt;b&gt;&lt;font&gt;&amp;lt;&amp;lt;&lt;/font&gt;&lt;span style=&quot;font-family: &amp;#34;calibri&amp;#34; ; text-align: left&quot;&gt;Extends&amp;gt;&amp;gt;&lt;/span&gt;&lt;/b&gt;&lt;/font&gt;" style="edgeStyle=orthogonalEdgeStyle;rounded=0;orthogonalLoop=1;jettySize=auto;html=1;fontSize=36;endArrow=none;endFill=0;strokeColor=#000000;strokeWidth=3;dashed=1;startArrow=classic;startFill=1;entryX=0.5;entryY=0;entryDx=0;entryDy=0;" parent="1" source="pixeIcaZRbEvFt5O1WeD-11" target="pixeIcaZRbEvFt5O1WeD-9" edge="1">
                    <mxGeometry relative="1" as="geometry"/>
                </mxCell>
                <mxCell id="pixeIcaZRbEvFt5O1WeD-11" value="&lt;p style=&quot;margin-top: 0pt ; margin-bottom: 0pt ; margin-left: 0in ; direction: ltr ; unicode-bidi: embed ; word-break: normal&quot;&gt;&lt;span style=&quot;font-size: 28pt ; font-family: &amp;#34;calibri&amp;#34; ; font-weight: bold&quot;&gt;&lt;font color=&quot;#050505&quot;&gt;Äänestys tilanne&lt;/font&gt;&lt;/span&gt;&lt;/p&gt;" style="ellipse;whiteSpace=wrap;html=1;fillColor=#d5e8d4;strokeColor=#000000;strokeWidth=3;" parent="1" vertex="1">
                    <mxGeometry x="770" y="80" width="200" height="115" as="geometry"/>
                </mxCell>
                <mxCell id="pixeIcaZRbEvFt5O1WeD-20" style="edgeStyle=orthogonalEdgeStyle;rounded=0;orthogonalLoop=1;jettySize=auto;html=1;fontSize=36;endArrow=none;endFill=0;strokeColor=#000000;strokeWidth=3;dashed=1;startArrow=classic;startFill=1;entryX=0.753;entryY=0.94;entryDx=0;entryDy=0;entryPerimeter=0;" parent="1" source="pixeIcaZRbEvFt5O1WeD-12" target="pixeIcaZRbEvFt5O1WeD-9" edge="1">
                    <mxGeometry relative="1" as="geometry"/>
                </mxCell>
                <mxCell id="pixeIcaZRbEvFt5O1WeD-22" value="&lt;font style=&quot;font-size: 18px&quot;&gt;&lt;b&gt;&amp;lt;&amp;lt;&lt;span style=&quot;font-family: &amp;#34;calibri&amp;#34; ; text-align: left&quot;&gt;Extends&amp;gt;&amp;gt;&lt;/span&gt;&lt;/b&gt;&lt;/font&gt;" style="edgeLabel;html=1;align=center;verticalAlign=middle;resizable=0;points=[];fontSize=18;" parent="pixeIcaZRbEvFt5O1WeD-20" vertex="1" connectable="0">
                    <mxGeometry x="-0.0673" y="-1" relative="1" as="geometry">
                        <mxPoint as="offset"/>
                    </mxGeometry>
                </mxCell>
                <mxCell id="pixeIcaZRbEvFt5O1WeD-12" value="&lt;p style=&quot;margin-top: 0pt ; margin-bottom: 0pt ; margin-left: 0in ; direction: ltr ; unicode-bidi: embed ; word-break: normal&quot;&gt;&lt;span style=&quot;font-size: 28pt ; font-family: &amp;#34;calibri&amp;#34; ; font-weight: bold&quot;&gt;&lt;font color=&quot;#050505&quot;&gt;Äänestys tiedot&lt;/font&gt;&lt;/span&gt;&lt;/p&gt;" style="ellipse;whiteSpace=wrap;html=1;fillColor=#d5e8d4;strokeColor=#000000;strokeWidth=3;" parent="1" vertex="1">
                    <mxGeometry x="770" y="270" width="200" height="120" as="geometry"/>
                </mxCell>
                <mxCell id="pixeIcaZRbEvFt5O1WeD-13" value="&lt;p style=&quot;margin-top: 0pt ; margin-bottom: 0pt ; margin-left: 0in ; direction: ltr ; unicode-bidi: embed ; word-break: normal&quot;&gt;&lt;span style=&quot;font-size: 28pt ; font-family: &amp;#34;calibri&amp;#34; ; font-weight: bold&quot;&gt;&lt;font color=&quot;#050505&quot;&gt;Lyo uuta äänestys&lt;/font&gt;&lt;/span&gt;&lt;/p&gt;" style="ellipse;whiteSpace=wrap;html=1;fillColor=#ffe6cc;strokeColor=#000000;strokeWidth=3;" parent="1" vertex="1">
                    <mxGeometry x="760" y="420" width="220" height="110" as="geometry"/>
                </mxCell>
                <mxCell id="pixeIcaZRbEvFt5O1WeD-14" value="&lt;p style=&quot;margin-top: 0pt ; margin-bottom: 0pt ; margin-left: 0in ; direction: ltr ; unicode-bidi: embed ; word-break: normal&quot;&gt;&lt;span style=&quot;font-size: 28pt ; font-family: &amp;#34;calibri&amp;#34; ; font-weight: bold&quot;&gt;&lt;font color=&quot;#050505&quot;&gt;Poista äänestys&lt;/font&gt;&lt;/span&gt;&lt;/p&gt;" style="ellipse;whiteSpace=wrap;html=1;fillColor=#ffe6cc;strokeColor=#000000;strokeWidth=3;" parent="1" vertex="1">
                    <mxGeometry x="760" y="630" width="220" height="110" as="geometry"/>
                </mxCell>
                <mxCell id="pixeIcaZRbEvFt5O1WeD-18" style="edgeStyle=orthogonalEdgeStyle;rounded=0;orthogonalLoop=1;jettySize=auto;html=1;entryX=0.75;entryY=0.1;entryDx=0;entryDy=0;entryPerimeter=0;fontSize=36;endArrow=none;endFill=0;strokeColor=#000000;strokeWidth=2;" parent="1" source="pixeIcaZRbEvFt5O1WeD-15" target="pixeIcaZRbEvFt5O1WeD-2" edge="1">
                    <mxGeometry relative="1" as="geometry"/>
                </mxCell>
                <mxCell id="pixeIcaZRbEvFt5O1WeD-25" style="rounded=0;orthogonalLoop=1;jettySize=auto;html=1;entryX=0;entryY=0.5;entryDx=0;entryDy=0;dashed=1;fontSize=18;startArrow=none;startFill=0;endArrow=block;endFill=1;strokeColor=default;strokeWidth=3;sketch=0;shadow=0;edgeStyle=orthogonalEdgeStyle;exitX=0.539;exitY=0.004;exitDx=0;exitDy=0;exitPerimeter=0;" parent="1" source="pixeIcaZRbEvFt5O1WeD-15" target="pixeIcaZRbEvFt5O1WeD-13" edge="1">
                    <mxGeometry relative="1" as="geometry"/>
                </mxCell>
                <mxCell id="pixeIcaZRbEvFt5O1WeD-26" value="&lt;font style=&quot;font-size: 18px&quot;&gt;&lt;b&gt;&amp;lt;&amp;lt;&lt;span style=&quot;font-family: &amp;#34;calibri&amp;#34; ; text-align: left&quot;&gt;Extends&amp;gt;&amp;gt;&lt;/span&gt;&lt;/b&gt;&lt;/font&gt;" style="edgeLabel;html=1;align=center;verticalAlign=middle;resizable=0;points=[];fontSize=18;" parent="pixeIcaZRbEvFt5O1WeD-25" vertex="1" connectable="0">
                    <mxGeometry x="0.0913" y="1" relative="1" as="geometry">
                        <mxPoint as="offset"/>
                    </mxGeometry>
                </mxCell>
                <mxCell id="pixeIcaZRbEvFt5O1WeD-27" style="edgeStyle=orthogonalEdgeStyle;rounded=0;sketch=0;orthogonalLoop=1;jettySize=auto;html=1;entryX=0;entryY=0.5;entryDx=0;entryDy=0;shadow=0;dashed=1;fontSize=18;startArrow=none;startFill=0;endArrow=block;endFill=1;strokeColor=default;strokeWidth=3;exitX=0.534;exitY=0.992;exitDx=0;exitDy=0;exitPerimeter=0;" parent="1" source="pixeIcaZRbEvFt5O1WeD-15" target="pixeIcaZRbEvFt5O1WeD-14" edge="1">
                    <mxGeometry relative="1" as="geometry"/>
                </mxCell>
                <mxCell id="pixeIcaZRbEvFt5O1WeD-28" value="&lt;font style=&quot;font-size: 18px&quot;&gt;&lt;b&gt;&amp;lt;&amp;lt;&lt;span style=&quot;font-family: &amp;#34;calibri&amp;#34; ; text-align: left&quot;&gt;Extends&amp;gt;&amp;gt;&lt;/span&gt;&lt;/b&gt;&lt;/font&gt;" style="edgeLabel;html=1;align=center;verticalAlign=middle;resizable=0;points=[];fontSize=18;" parent="pixeIcaZRbEvFt5O1WeD-27" vertex="1" connectable="0">
                    <mxGeometry x="0.1068" y="-2" relative="1" as="geometry">
                        <mxPoint as="offset"/>
                    </mxGeometry>
                </mxCell>
                <mxCell id="pixeIcaZRbEvFt5O1WeD-15" value="&lt;p style=&quot;margin-top: 0pt ; margin-bottom: 0pt ; margin-left: 0in ; direction: ltr ; unicode-bidi: embed ; word-break: normal&quot;&gt;&lt;font color=&quot;#050505&quot;&gt;&lt;span style=&quot;font-size: 32pt ; font-family: &amp;#34;lato&amp;#34; ; font-weight: bold&quot;&gt;Ylläpitäjän&lt;/span&gt;&lt;span style=&quot;font-size: 32pt ; font-family: &amp;#34;calibri&amp;#34; ; font-weight: bold&quot;&gt;sivu&lt;/span&gt;&lt;/font&gt;&lt;/p&gt;" style="ellipse;whiteSpace=wrap;html=1;fillColor=#ffe6cc;strokeColor=#000000;strokeWidth=3;" parent="1" vertex="1">
                    <mxGeometry x="280" y="520" width="310" height="120" as="geometry"/>
                </mxCell>
            </root>
        </mxGraphModel>
    </diagram>
</mxfile>